<svg xmlns="http://www.w3.org/2000/svg" width="1600" height="760" viewBox="0 0 1600 760" role="img" aria-label="코르카 AX Day 1회차부터 4회차까지의 기록">
  <defs>
    <style>
      text { font-family: Pretendard, Arial, sans-serif; fill: #111827; }
      .panel { fill: #ffffff; stroke: #d8dde7; stroke-width: 2; }
      .muted { fill: #6b7280; font-size: 17px; font-weight: 650; }
      .title { font-size: 34px; font-weight: 900; }
      .body { font-size: 18px; font-weight: 560; fill: #303642; }
      .photo { fill: #e9eef6; stroke: #ffffff; stroke-width: 4; }
      .photo2 { fill: #dbe5f1; }
      .accent { fill: #005cff; }
    </style>
  </defs>
  <rect width="1600" height="760" fill="#ffffff"/>
  <g transform="translate(0,0)">
    <rect class="panel" x="0" y="0" width="388" height="760"/>
    <text class="muted" x="194" y="38" text-anchor="middle">2026년 3월 14일 · 9 MIN READ</text>
    <text class="title" x="24" y="92">코르카 AX Day:</text>
    <text class="title" x="24" y="136">AX에 진심이니,</text>
    <text class="title" x="24" y="180">시간을 투자합니다</text>
    <text class="body" x="24" y="244">20%를 투자해서 10배를 얻어봅시다.</text>
    <rect class="photo" x="24" y="298" width="156" height="112"/>
    <rect class="photo photo2" x="196" y="298" width="156" height="112"/>
    <rect class="photo photo2" x="24" y="426" width="100" height="94"/>
    <rect class="photo" x="140" y="426" width="100" height="94"/>
    <rect class="photo photo2" x="256" y="426" width="100" height="94"/>
    <rect class="accent" x="24" y="565" width="6" height="82"/>
    <text class="body" x="44" y="588">전 직원이 함께 모여</text>
    <text class="body" x="44" y="616">새로운 업무 방식을</text>
    <text class="body" x="44" y="644">실험한 첫 기록</text>
  </g>
  <g transform="translate(404,0)">
    <rect class="panel" x="0" y="0" width="388" height="760"/>
    <text class="muted" x="194" y="38" text-anchor="middle">2026년 3월 20일 · 7 MIN READ</text>
    <text class="title" x="24" y="92">코르카 AX Day</text>
    <text class="title" x="24" y="136">2회차 이모저모:</text>
    <text class="title" x="24" y="180">한달처럼 지낸 일주일</text>
    <text class="body" x="24" y="244">일주일이 한달처럼 지나갔습니다.</text>
    <rect class="photo photo2" x="24" y="300" width="164" height="148"/>
    <rect class="photo" x="204" y="300" width="148" height="148"/>
    <rect class="photo" x="24" y="466" width="328" height="124"/>
    <rect class="accent" x="24" y="638" width="6" height="58"/>
    <text class="body" x="44" y="662">도구와 프로토타입을</text>
    <text class="body" x="44" y="690">빠르게 시험한 회차</text>
  </g>
  <g transform="translate(808,0)">
    <rect class="panel" x="0" y="0" width="388" height="760"/>
    <text class="muted" x="194" y="38" text-anchor="middle">2026년 4월 5일 · 21 MIN READ</text>
    <text class="title" x="24" y="92">코르카 AX Day</text>
    <text class="title" x="24" y="136">3회차:</text>
    <text class="title" x="24" y="180">슬기로운 보안생활</text>
    <rect class="photo" x="24" y="248" width="100" height="96"/>
    <rect class="photo photo2" x="144" y="248" width="100" height="96"/>
    <rect class="photo" x="264" y="248" width="100" height="96"/>
    <rect class="photo photo2" x="24" y="364" width="100" height="96"/>
    <rect class="photo" x="144" y="364" width="100" height="96"/>
    <rect class="photo photo2" x="264" y="364" width="100" height="96"/>
    <rect class="accent" x="24" y="528" width="6" height="84"/>
    <text class="body" x="44" y="552">보안과 책임을 주제로</text>
    <text class="body" x="44" y="580">AI 활용 경계를</text>
    <text class="body" x="44" y="608">함께 실험</text>
  </g>
  <g transform="translate(1212,0)">
    <rect class="panel" x="0" y="0" width="388" height="760"/>
    <text class="muted" x="194" y="38" text-anchor="middle">2026년 4월 21일 · 10 MIN READ</text>
    <text class="title" x="24" y="92">코르카 AX Day</text>
    <text class="title" x="24" y="136">4회차:</text>
    <text class="title" x="24" y="180">Corca Ent. 창설?</text>
    <rect class="photo photo2" x="24" y="248" width="100" height="96"/>
    <rect class="photo" x="144" y="248" width="100" height="96"/>
    <rect class="photo photo2" x="264" y="248" width="100" height="96"/>
    <rect class="photo" x="24" y="364" width="100" height="96"/>
    <rect class="photo photo2" x="144" y="364" width="100" height="96"/>
    <rect class="photo" x="264" y="364" width="100" height="96"/>
    <rect class="accent" x="24" y="528" width="6" height="84"/>
    <text class="body" x="44" y="552">조직의 강점을 살린</text>
    <text class="body" x="44" y="580">새로운 시나리오와</text>
    <text class="body" x="44" y="608">제품 실험</text>
  </g>
</svg>
