<svg xmlns="http://www.w3.org/2000/svg" width="1600" height="900" viewBox="0 0 1600 900" role="img" aria-label="코르카 AX 공유회 기록">
  <defs>
    <style>
      text { font-family: Pretendard, Arial, sans-serif; fill: #2a2f38; }
      .muted { fill: #9aa1aa; font-size: 18px; font-weight: 700; }
      .title { font-size: 42px; font-weight: 900; }
      .card { fill: #ffffff; stroke: #e1e5ec; stroke-width: 2; }
      .card-title { font-size: 28px; font-weight: 850; }
      .date { fill: #929aa5; font-size: 20px; font-weight: 720; }
      .chip { fill: #f1f3f6; }
      .blue { fill: #005cff; }
    </style>
  </defs>
  <rect width="1600" height="900" fill="#ffffff"/>
  <text class="title" x="42" y="68">AX 공유회</text>
  <rect class="chip" x="42" y="104" width="96" height="42" rx="21"/>
  <text class="muted" x="90" y="132" text-anchor="middle">갤러리</text>
  <g transform="translate(42,188)">
    <rect class="card" x="0" y="0" width="292" height="168" rx="12"/>
    <text class="card-title" x="24" y="48">AX 공유회: 스킬 유지</text>
    <text class="card-title" x="24" y="86">보수, Margin 2.0,</text>
    <text class="card-title" x="24" y="124">AI 지침 철학</text>
    <text class="date" x="24" y="154">@오늘 AX 공유회</text>
  </g>
  <g transform="translate(362,188)">
    <rect class="card" x="0" y="0" width="292" height="168" rx="12"/>
    <text class="card-title" x="24" y="48">AX 공유회 - 신입 적응기,</text>
    <text class="card-title" x="24" y="86">Craken 개발력,</text>
    <text class="card-title" x="24" y="124">제니스</text>
    <text class="date" x="24" y="154">@지난주 목요일 AX 공유회</text>
  </g>
  <g transform="translate(682,188)">
    <rect class="card" x="0" y="0" width="292" height="168" rx="12"/>
    <text class="card-title" x="24" y="48">AX 공유회 - 에이전트</text>
    <text class="card-title" x="24" y="86">팀문화, 막클리에,</text>
    <text class="card-title" x="24" y="124">Lighthouse</text>
    <text class="date" x="24" y="154">@2026년 6월 11일</text>
  </g>
  <g transform="translate(1002,188)">
    <rect class="card" x="0" y="0" width="292" height="168" rx="12"/>
    <text class="card-title" x="24" y="48">인간을 위한 하네스,</text>
    <text class="card-title" x="24" y="86">네모트론으로 유저</text>
    <text class="card-title" x="24" y="124">인터뷰하기</text>
    <text class="date" x="24" y="154">@2026년 6월 4일</text>
  </g>
  <g transform="translate(42,390)">
    <rect class="card" x="0" y="0" width="292" height="168" rx="12"/>
    <text class="card-title" x="24" y="48">last30days, 나에게</text>
    <text class="card-title" x="24" y="86">AX란, 롤모델 스킬 &amp;</text>
    <text class="card-title" x="24" y="124">연결진행 스킬</text>
    <text class="date" x="24" y="154">@2026년 5월 21일</text>
  </g>
  <g transform="translate(362,390)">
    <rect class="card" x="0" y="0" width="292" height="168" rx="12"/>
    <text class="card-title" x="24" y="48">Goal, 사람을 위한</text>
    <text class="card-title" x="24" y="86">하네스, 앵겔바트가</text>
    <text class="card-title" x="24" y="124">ChatGPT를 만들었다면</text>
    <text class="date" x="24" y="154">@2026년 5월 14일</text>
  </g>
  <g transform="translate(682,390)">
    <rect class="card" x="0" y="0" width="292" height="168" rx="12"/>
    <text class="card-title" x="24" y="48">생산성의 역설, CEO의</text>
    <text class="card-title" x="24" y="86">한달간 에이전트 사용기,</text>
    <text class="card-title" x="24" y="124">해머스푼</text>
    <text class="date" x="24" y="154">@2026년 5월 7일</text>
  </g>
  <g transform="translate(1002,390)">
    <rect class="card" x="0" y="0" width="292" height="168" rx="12"/>
    <text class="card-title" x="24" y="48">의도에서 코드로,</text>
    <text class="card-title" x="24" y="86">철든 친구처럼 AI 쓰기,</text>
    <text class="card-title" x="24" y="124">'잘 모르겠고 해줘'</text>
    <text class="date" x="24" y="154">@2026년 4월 29일</text>
  </g>
  <g transform="translate(42,592)">
    <rect class="card" x="0" y="0" width="292" height="168" rx="12"/>
    <text class="card-title" x="24" y="54">스킬은 없다 3,</text>
    <text class="card-title" x="24" y="94">AI 코딩은 도박이다</text>
    <text class="date" x="24" y="154">@2026년 4월 16일</text>
  </g>
  <g transform="translate(362,592)">
    <rect class="card" x="0" y="0" width="292" height="168" rx="12"/>
    <text class="card-title" x="24" y="54">코드리뷰 하네스,</text>
    <text class="card-title" x="24" y="94">OpenColor 개발 파이프라인</text>
    <text class="date" x="24" y="154">@2026년 4월 9일</text>
  </g>
  <g transform="translate(682,592)">
    <rect class="card" x="0" y="0" width="292" height="168" rx="12"/>
    <text class="card-title" x="24" y="54">디자인은 나무가 아니다,</text>
    <text class="card-title" x="24" y="94">인사이트 모아보기</text>
    <text class="date" x="24" y="154">@2026년 4월 2일</text>
  </g>
  <g transform="translate(1002,592)">
    <rect class="card" x="0" y="0" width="292" height="168" rx="12"/>
    <text class="card-title" x="24" y="54">Claude Channels,</text>
    <text class="card-title" x="24" y="94">라이트하우스, 스킬은 없다 2</text>
    <text class="date" x="24" y="154">@2026년 3월 26일</text>
  </g>
  <rect class="blue" x="42" y="812" width="1260" height="5"/>
</svg>
