<svg width="800" height="234" viewBox="0 0 800 234" fill="none" xmlns="http://www.w3.org/2000/svg">
<path d="M111.599 49.1788C115.15 49.1788 118.479 49.3267 121.586 49.6596C124.693 49.9925 127.838 50.4364 130.945 51.0653C134.052 51.6941 137.344 52.5079 140.784 53.5806C142.56 54.1354 144.446 54.7273 146.407 55.3561C149.773 56.4658 153.509 55.0972 155.284 52.027C157.688 47.8841 160.13 43.3343 162.201 36.5652C164.273 29.796 165.049 23.5447 165.271 16.8865C165.382 13.6683 163.459 10.6352 160.389 9.52545C151.289 6.19635 142.929 3.90296 135.31 2.6453C126.358 1.20269 116.852 0.462891 106.864 0.462891C89.9967 0.462891 74.9048 3.38511 61.5514 9.22953C48.235 15.074 37.027 23.1748 27.9645 33.606C18.9019 44.0371 11.9848 56.3548 7.17607 70.633C2.36736 84.9111 0 100.373 0 117.055C0 133.738 2.29338 149.126 6.88015 163.293C11.4669 177.46 18.2731 189.63 27.3356 199.839C36.3982 210.048 47.6432 218.001 61.0705 223.735C74.4979 229.468 90.0707 232.353 107.789 232.353C112.783 232.353 117.628 232.205 122.326 231.873C127.024 231.577 131.758 231.022 136.53 230.319C141.302 229.579 146.333 228.506 151.511 227.027C153.398 226.509 155.358 225.917 157.393 225.251C161.461 223.92 163.644 219.407 162.09 215.412C158.206 205.647 155.136 195.215 152.991 184.266C152.14 179.939 147.701 177.349 143.484 178.607C139.526 179.791 135.79 180.789 132.942 181.418C127.024 182.676 120.698 183.305 114.04 183.305C76.9393 183.305 58.4073 161.222 58.4073 117.055C58.4073 94.5655 63.031 77.6241 72.3155 66.2682C81.6 54.9122 94.6575 49.2527 111.525 49.2527L111.599 49.1788Z" fill="#056EB9"/>
<path d="M798.91 212.86C793.398 204.685 785.926 188.594 785.889 161.481C785.778 108.918 785.741 109.695 782.412 101.224C779.083 92.7903 774.349 85.8732 768.208 80.4356C762.068 75.0351 754.596 71.0032 745.866 68.4139C737.1 65.8246 727.334 64.5299 716.496 64.5299C708.58 64.5299 699.666 65.3437 689.789 67.0082C681.615 68.3769 673.403 70.3373 665.191 72.8527C662.454 73.7034 660.604 76.4037 660.937 79.2519C661.307 82.5441 661.418 87.6487 660.493 94.9727C660.012 98.7827 658.57 103.48 656.942 107.845C655.13 112.802 659.975 117.574 664.895 115.613C671.812 112.913 680.431 109.917 690.566 108.067C697.224 106.847 703.069 106.329 708.062 106.329C711.835 106.329 715.46 106.588 719.011 107.105C722.563 107.623 725.781 108.585 728.703 109.917C731.625 111.248 734.029 113.172 735.879 115.687C735.879 115.687 735.879 115.724 735.953 115.761C738.801 119.608 735.583 125.046 730.811 125.046H719.973C712.057 125.046 703.92 125.822 695.597 127.376C687.274 128.93 679.654 131.704 672.774 135.662C665.894 139.62 660.271 144.946 655.906 151.604C651.542 158.263 649.322 166.696 649.322 176.906C649.322 187.115 651.135 196.103 654.797 203.316C658.459 210.493 663.489 216.3 669.963 220.665C676.436 225.03 684.167 228.211 693.229 230.208C702.292 232.206 712.242 233.167 723.08 233.167C735.583 233.167 747.383 231.651 758.702 229.727C767.431 228.248 784.003 224.734 795.285 222.07C799.428 221.109 801.351 216.3 798.947 212.749L798.91 212.86ZM736.693 193.033C734.732 193.403 732.809 193.699 731.144 193.884C727.593 194.291 724.893 194.513 723.043 194.513C720.343 194.513 717.347 194.328 714.129 193.884C710.911 193.477 707.878 192.626 705.066 191.369C702.255 190.111 699.925 188.299 698.038 185.894C696.152 183.49 695.227 180.235 695.227 176.055C695.227 170.432 697.742 166.068 702.736 162.923C707.73 159.779 713.87 158.226 721.194 158.226H733.179C736.397 158.226 739.097 160.741 739.282 163.959C739.652 169.804 740.355 178.94 741.612 185.894C742.204 189.223 740.059 192.404 736.73 192.996L736.693 193.033Z" fill="#056EB9"/>
<path d="M468.257 166.659C466.667 163.663 467.296 160.038 469.848 157.781C470.255 157.412 470.699 157.005 471.18 156.598C473.473 154.526 475.655 151.826 477.727 148.423C479.798 145.02 481.574 140.951 483.016 136.216C484.459 131.481 485.199 125.933 485.199 119.534C485.199 102.666 478.911 89.5348 466.297 80.1763C453.72 70.8178 434.818 66.1201 409.628 66.1201C400.27 66.1201 390.319 66.379 379.814 67.3408C371.824 68.0806 360.875 69.4492 349.815 71.1138C345.044 71.8536 342.121 76.6623 343.86 81.0641C351.924 101.224 356.511 124.305 356.511 148.83C356.511 173.354 351.554 198.249 342.898 218.963C341.049 223.439 343.934 228.395 348.817 229.098C353.107 229.727 356.363 230.171 358.323 230.393C362.466 230.911 371.75 231.577 375.264 231.577C378.594 231.577 382.441 231.429 386.805 231.133C389.358 230.948 392.095 230.652 395.017 230.208C398.716 229.653 401.49 226.509 401.49 222.847V114.688C401.49 110.693 404.709 107.401 408.777 107.253C410.59 107.179 412.439 107.179 413.919 107.179C420.984 107.179 426.163 108.881 429.381 112.284C432.599 115.687 434.227 120.052 434.227 125.415C434.227 130.779 432.858 135.772 430.158 140.396C427.457 145.02 419.061 149.385 411.774 153.528L407.409 156.006L440.441 225.436C441.514 227.656 443.585 229.246 446.063 229.653C448.801 230.097 451.945 230.467 455.496 230.726C460.896 231.133 466.519 231.651 472.363 231.651C477.135 231.651 482.092 231.133 487.196 230.726C488.232 230.652 489.231 230.541 490.229 230.43C495.556 229.875 498.663 224.253 496.185 219.592L468.183 166.659H468.257Z" fill="#056EB9"/>
<path d="M313.084 87.7964C306.315 80.2874 297.918 74.517 287.931 70.4481C277.943 66.3792 266.254 64.3447 252.938 64.3447C239.622 64.3447 228.266 66.3792 218.241 70.4481C208.254 74.517 199.857 80.2874 193.088 87.7964C186.319 95.3054 181.214 104.294 177.774 114.836C174.334 125.341 172.596 136.993 172.596 149.681C172.596 162.368 174.297 173.576 177.774 183.897C181.214 194.217 186.319 203.057 193.088 210.455C199.857 217.853 208.254 223.513 218.241 227.471C228.229 231.429 239.807 233.426 252.938 233.426C266.07 233.426 277.943 231.429 287.931 227.471C297.918 223.513 306.315 217.853 313.084 210.455C319.853 203.057 324.958 194.217 328.398 183.897C331.838 173.576 333.576 162.183 333.576 149.681C333.576 137.178 331.838 125.378 328.398 114.836C324.958 104.331 319.853 95.3054 313.084 87.7964ZM273.394 179.976C268.918 187.078 262.075 190.592 252.938 190.592C243.802 190.592 236.995 187.078 232.631 179.976C228.266 172.91 226.046 162.812 226.046 149.681C226.046 136.549 228.229 126.155 232.631 119.053C236.995 111.988 243.765 108.437 252.938 108.437C262.112 108.437 268.918 111.988 273.394 119.053C277.869 126.118 280.126 136.327 280.126 149.681C280.126 163.034 277.869 172.91 273.394 179.976Z" fill="#056EB9"/>
<path d="M629.017 185.598L628.721 184.969C626.427 181.566 621.841 183.971 618.179 184.858C585.886 194.957 557.33 185.228 559.143 145.02C560.289 116.538 582.705 105.737 608.154 110.064C614.961 111.359 626.501 116.353 630.644 111.322C636.97 102.925 638.893 90.7927 639.448 80.8423C639.374 78.401 639.411 75.9966 636.97 74.2951C617.365 62.4213 591.361 63.3091 569.093 65.6394C513.349 73.4443 493.152 134.071 509.391 182.935C525.778 235.202 591.842 242.341 636.97 225.251C642 223.217 641.778 219.703 639.078 216.152C632.235 207.903 630.755 196.288 629.017 185.561V185.598Z" fill="#056EB9"/>
</svg>
